<?xml version="1.0" standalone="no"?>
<!DOCTYPE svg PUBLIC "-//W3C//DTD SVG 20010904//EN"
 "http://www.w3.org/TR/2001/REC-SVG-20010904/DTD/svg10.dtd">
<svg version="1.0" xmlns="http://www.w3.org/2000/svg"
 width="822.000000pt" height="822.000000pt" viewBox="0 0 822.000000 822.000000"
 preserveAspectRatio="xMidYMid meet">

<g transform="translate(0.000000,822.000000) scale(0.100000,-0.100000)"
fill="#ffc409" stroke="none">
<path d="M3835 8199 c-1335 -90 -2547 -830 -3237 -1979 -241 -400 -413 -843
-503 -1295 -182 -912 -61 -1824 351 -2648 488 -975 1337 -1710 2374 -2057 824
-276 1756 -276 2580 0 1283 429 2270 1455 2646 2750 287 987 190 2050 -272
2973 -740 1478 -2292 2367 -3939 2256z m723 -363 c735 -98 1345 -357 1912
-810 148 -119 402 -369 524 -516 419 -506 701 -1115 810 -1750 44 -257 51
-342 51 -650 0 -308 -7 -393 -51 -650 -109 -635 -391 -1244 -810 -1750 -122
-147 -376 -397 -524 -516 -578 -462 -1204 -723 -1960 -816 -140 -17 -660 -17
-800 0 -756 93 -1382 354 -1960 816 -148 119 -402 369 -524 516 -419 506 -701
1115 -810 1750 -44 257 -51 342 -51 650 0 308 7 393 51 650 109 635 391 1244
810 1750 190 229 493 507 745 683 507 353 1131 585 1734 646 61 6 126 13 145
15 83 10 601 -4 708 -18z"/>
<path d="M2392 6293 c-51 -120 -87 -292 -80 -383 3 -41 7 -47 44 -67 l41 -23
46 -282 c140 -859 210 -1483 177 -1583 -81 -246 -765 -429 -1195 -319 -105 27
-199 80 -264 149 -78 84 -103 147 -109 279 -9 187 35 344 170 609 44 87 79
159 77 161 -17 15 -53 26 -60 19 -4 -4 -45 -82 -91 -173 -170 -335 -238 -566
-238 -809 0 -181 42 -295 146 -398 168 -165 468 -230 899 -192 245 21 416 71
550 160 93 62 145 122 195 224 60 122 72 177 77 370 8 262 -31 641 -141 1395
-25 167 -44 306 -42 307 1 2 28 -5 58 -16 l55 -19 18 82 c10 44 20 128 23 186
l4 105 -118 54 c-66 29 -127 61 -138 70 -24 21 -42 58 -50 104 -9 51 -29 47
-54 -10z"/>
<path d="M4627 6107 c-10 -23 -38 -92 -62 -152 l-43 -111 23 -104 c60 -267 82
-601 51 -776 -43 -248 -178 -470 -389 -639 -159 -128 -375 -247 -632 -348
-143 -56 -595 -207 -621 -207 -8 0 -14 -10 -14 -25 l0 -25 198 0 c316 0 601
26 762 70 174 48 340 156 439 286 66 88 203 364 278 562 69 184 69 185 83 -98
12 -260 41 -404 107 -534 33 -66 104 -140 158 -165 45 -21 51 -21 1195 -21
l1150 0 0 165 0 165 -63 0 c-96 0 -144 31 -422 275 -316 278 -426 362 -561
432 -116 60 -199 83 -304 83 -200 0 -349 -97 -445 -288 l-26 -54 108 7 c309
20 559 -76 943 -364 l115 -86 -799 -3 c-892 -2 -820 -8 -876 70 -64 88 -96
240 -155 723 -72 595 -156 1179 -173 1197 -4 4 -15 -12 -25 -35z"/>
<path d="M3053 6074 c-9 -14 -18 -49 -21 -78 -10 -124 58 -285 167 -396 95
-96 237 -187 319 -205 29 -6 37 -3 67 30 19 20 35 40 35 45 0 12 40 24 70 21
114 -13 338 -237 529 -527 36 -55 82 -133 101 -172 19 -39 38 -71 42 -71 12
-1 21 90 15 163 -17 224 -137 444 -372 681 -174 176 -373 319 -614 442 -120
61 -214 93 -277 93 -36 0 -47 -5 -61 -26z"/>
<path d="M1945 2882 l-30 -7 -3 -488 -2 -487 26 -10 c33 -13 115 -13 148 0
l26 10 0 210 0 210 190 0 190 0 0 -210 0 -210 26 -10 c33 -13 115 -13 148 0
l26 10 -2 487 -3 488 -47 8 c-27 5 -69 5 -95 0 l-48 -8 -3 -198 -2 -197 -190
0 -190 0 0 194 c0 107 -4 197 -9 200 -16 10 -124 15 -156 8z"/>
<path d="M3240 2878 c-22 -12 -47 -76 -187 -478 -89 -256 -162 -475 -162 -486
-1 -12 6 -25 15 -28 28 -11 140 -6 156 7 9 6 31 58 49 115 l33 102 195 -2 195
-3 32 -100 c18 -55 37 -106 44 -113 8 -9 37 -12 98 -10 84 3 87 4 90 28 3 30
-312 938 -333 959 -21 21 -190 27 -225 9z m170 -394 c39 -115 70 -212 70 -216
0 -5 -66 -8 -146 -8 -113 0 -145 3 -141 13 2 6 35 106 71 220 37 115 69 207
72 204 2 -2 36 -98 74 -213z"/>
<path d="M4043 2884 c-12 -3 -27 -11 -33 -18 -7 -10 -10 -153 -8 -485 3 -406
5 -473 18 -481 8 -6 126 -10 267 -10 l252 0 7 45 c7 49 -1 96 -19 107 -7 4
-83 8 -169 8 l-158 0 0 409 c0 280 -3 412 -11 416 -14 9 -118 15 -146 9z"/>
<path d="M5000 2878 c-21 -12 -47 -78 -187 -478 -89 -256 -162 -475 -162 -486
-1 -12 6 -25 15 -28 28 -11 140 -6 156 7 9 6 31 58 49 115 l33 102 195 -2 194
-3 35 -105 c19 -58 40 -108 46 -113 6 -4 49 -6 96 -5 82 3 85 4 88 28 3 30
-312 938 -333 959 -20 21 -190 27 -225 9z m170 -394 c39 -115 70 -212 70 -216
0 -5 -66 -8 -146 -8 -126 0 -145 2 -140 15 3 8 35 108 72 221 36 113 68 204
70 201 3 -2 36 -98 74 -213z"/>
<path d="M5803 2884 c-12 -3 -27 -11 -33 -18 -7 -10 -10 -153 -8 -485 3 -406
5 -473 18 -481 8 -6 126 -10 267 -10 l252 0 7 36 c8 44 -1 105 -18 116 -7 4
-84 8 -170 8 l-158 0 0 409 c0 280 -3 412 -11 416 -14 9 -118 15 -146 9z"/>
</g>
</svg>
