<?xml version="1.0" encoding="utf-8"?><svg version="1.1" id="Layer_1" xmlns="http://www.w3.org/2000/svg" xmlns:xlink="http://www.w3.org/1999/xlink" x="0px" y="0px" viewBox="0 0 122.88 91.22" style="enable-background:new 0 0 122.88 91.22" xml:space="preserve"><style type="text/css"><![CDATA[
	.st0{fill-rule:evenodd;clip-rule:evenodd;fill:#51A148;}
]]></style><g><path class="st0" d="M64.5,52.69c1.13,0.3,2.47,0.5,3.63,0.68c29.52,4.75,50.59-9.69,46.75-53.37 c-20.34,7.05-47.9,5.65-53.43,31.31C55.9,5.65,28.35,7.05,8.01,0C4.15,43.83,25.39,58.22,55.08,53.31 c1.06-0.17,2.27-0.36,3.31-0.63C59.21,54.13,62.35,54.83,64.5,52.69L64.5,52.69z M11.2,61.29c1.18,0,2.29,0.12,3.31,0.36 c1.02,0.24,1.97,0.61,2.83,1.09l0.02,0.01c0.85,0.48,1.6,1.07,2.25,1.75c0.65,0.69,1.2,1.49,1.64,2.38 c0.44,0.89,0.77,1.86,0.99,2.9c0.22,1.04,0.33,2.16,0.33,3.34c0,1.76-0.24,3.36-0.72,4.81c-0.24,0.73-0.54,1.41-0.9,2.04 l-0.01,0.02c-0.36,0.62-0.78,1.2-1.26,1.73c-0.49,0.54-1.03,1.01-1.62,1.42c-0.6,0.41-1.25,0.76-1.95,1.04 c-0.71,0.28-1.46,0.49-2.26,0.63c-0.8,0.14-1.65,0.21-2.54,0.21c-0.89,0-1.74-0.07-2.55-0.22c-0.8-0.14-1.56-0.36-2.27-0.65 c-0.71-0.29-1.37-0.64-1.97-1.05c-0.6-0.41-1.14-0.89-1.62-1.42c-0.48-0.53-0.9-1.12-1.26-1.75c-0.36-0.64-0.66-1.33-0.91-2.07 c-0.24-0.74-0.42-1.5-0.54-2.3C0.06,74.79,0,73.97,0,73.12c0-0.87,0.06-1.71,0.19-2.52c0.13-0.81,0.32-1.58,0.57-2.31l0.01-0.03 c0.25-0.73,0.56-1.4,0.92-2.02c0.37-0.63,0.8-1.21,1.28-1.73c0.48-0.52,1.02-0.98,1.61-1.38c0.59-0.4,1.23-0.74,1.93-1.01 l0.02-0.01c0.68-0.27,1.41-0.48,2.19-0.61C9.5,61.36,10.33,61.29,11.2,61.29L11.2,61.29z M17.23,73.12c0-0.79-0.06-1.53-0.19-2.21 s-0.32-1.31-0.57-1.88L16.47,69c-0.25-0.55-0.55-1.04-0.9-1.46c-0.35-0.42-0.75-0.77-1.21-1.06c-0.45-0.28-0.94-0.5-1.47-0.64 l-0.03-0.01c-0.51-0.14-1.07-0.21-1.66-0.21c-0.43,0-0.83,0.04-1.22,0.12c-0.39,0.08-0.76,0.2-1.12,0.36l-0.02,0.01 c-0.35,0.16-0.67,0.35-0.97,0.57c-0.3,0.23-0.59,0.49-0.84,0.8c-0.26,0.3-0.49,0.65-0.69,1.04l-0.01,0.02 c-0.2,0.39-0.38,0.82-0.53,1.3c-0.15,0.49-0.27,1-0.34,1.54c-0.08,0.54-0.12,1.13-0.12,1.74c0,0.62,0.04,1.21,0.12,1.76 c0.08,0.55,0.19,1.07,0.34,1.56c0.15,0.49,0.34,0.94,0.55,1.34c0.21,0.4,0.46,0.76,0.73,1.07l0.01,0.01 c0.27,0.31,0.56,0.58,0.87,0.82c0.31,0.23,0.64,0.43,0.99,0.58l0.03,0.01c0.34,0.15,0.71,0.27,1.08,0.34 c0.38,0.08,0.79,0.12,1.22,0.12c0.55,0,1.07-0.07,1.56-0.2c0.5-0.14,0.98-0.34,1.43-0.61l0.01-0.01c0.44-0.27,0.84-0.6,1.19-1.01 c0.36-0.42,0.68-0.91,0.95-1.49l0.01-0.02c0.27-0.57,0.47-1.2,0.6-1.9C17.16,74.77,17.23,73.97,17.23,73.12L17.23,73.12z M31.02,78.7v3.46c0,0.94-0.23,1.65-0.69,2.15c-0.23,0.25-0.5,0.44-0.8,0.56c-0.3,0.13-0.62,0.19-0.98,0.19 c-0.35,0-0.67-0.06-0.97-0.19l-0.03-0.02c-0.28-0.13-0.54-0.31-0.76-0.56l-0.02-0.02c-0.22-0.25-0.38-0.55-0.49-0.91 c-0.11-0.35-0.16-0.75-0.16-1.2V70.62c0-1.01,0.19-1.78,0.58-2.31c0.41-0.57,1.02-0.86,1.82-0.86c0.81,0,1.42,0.27,1.79,0.82l0,0 c0.18,0.25,0.31,0.56,0.41,0.92l0.03,0.13l0.23-0.3c0.26-0.33,0.53-0.61,0.8-0.84c0.3-0.25,0.65-0.44,1.04-0.56 c0.39-0.12,0.81-0.18,1.29-0.18c0.93,0,1.84,0.23,2.71,0.7c0.46,0.24,0.81,0.54,1.05,0.88c0.25,0.36,0.38,0.76,0.38,1.2 c0,0.3-0.05,0.58-0.16,0.84c-0.11,0.26-0.27,0.49-0.48,0.69c-0.21,0.2-0.42,0.34-0.65,0.44c-0.24,0.1-0.49,0.16-0.74,0.16 c-0.1,0-0.27-0.03-0.48-0.08c-0.18-0.04-0.43-0.12-0.73-0.22l-0.02,0c-0.27-0.09-0.53-0.15-0.76-0.19 c-0.23-0.04-0.45-0.06-0.65-0.06c-0.27,0-0.5,0.03-0.71,0.1c-0.2,0.06-0.38,0.16-0.54,0.29c-0.16,0.14-0.31,0.31-0.44,0.51 c-0.13,0.21-0.25,0.46-0.34,0.74c-0.1,0.29-0.19,0.62-0.26,0.98c-0.07,0.37-0.13,0.76-0.17,1.17l0,0.01 c-0.04,0.43-0.07,0.9-0.09,1.42C31.03,77.5,31.02,78.06,31.02,78.7L31.02,78.7z M55.78,70.88v12.04c0,0.7-0.04,1.36-0.11,1.97 c-0.08,0.61-0.19,1.18-0.34,1.69l0,0.02c-0.16,0.52-0.36,1-0.6,1.43l-0.01,0.02c-0.25,0.43-0.55,0.82-0.89,1.16 c-0.35,0.35-0.75,0.65-1.21,0.91c-0.45,0.25-0.95,0.46-1.5,0.63c-0.54,0.16-1.15,0.29-1.82,0.37c-0.67,0.08-1.4,0.12-2.19,0.12 c-0.73,0-1.42-0.05-2.09-0.16c-0.67-0.11-1.29-0.26-1.87-0.47c-0.58-0.21-1.1-0.45-1.56-0.72c-0.46-0.28-0.86-0.59-1.19-0.92 l-0.01-0.01c-0.33-0.34-0.58-0.7-0.74-1.05c-0.18-0.38-0.26-0.76-0.26-1.15c0-0.62,0.21-1.12,0.63-1.52l0,0 c0.21-0.19,0.44-0.33,0.69-0.43c0.25-0.1,0.52-0.15,0.81-0.15c0.36,0,0.71,0.08,1.03,0.24c0.31,0.16,0.6,0.39,0.86,0.7 c0.23,0.28,0.47,0.55,0.7,0.83c0.1,0.12,0.22,0.23,0.33,0.34c0.12,0.11,0.25,0.21,0.37,0.29c0.12,0.08,0.26,0.16,0.42,0.22 l0.02,0.01c0.14,0.06,0.3,0.11,0.48,0.15l0.02,0.01c0.18,0.04,0.38,0.07,0.59,0.1l0.01,0c0.21,0.02,0.44,0.03,0.69,0.03 c0.52,0,0.97-0.04,1.36-0.11c0.38-0.07,0.7-0.17,0.97-0.3l0.02-0.01c0.25-0.13,0.47-0.28,0.64-0.46s0.31-0.38,0.41-0.6l0,0 c0.11-0.25,0.2-0.5,0.26-0.77c0.06-0.26,0.11-0.54,0.13-0.83c0.02-0.32,0.04-0.72,0.05-1.21l0.02-0.64 c-0.12,0.13-0.25,0.26-0.38,0.38c-0.39,0.36-0.81,0.66-1.25,0.91l-0.02,0.01c-0.44,0.24-0.93,0.43-1.45,0.55 c-0.53,0.12-1.09,0.19-1.7,0.19c-0.73,0-1.41-0.09-2.06-0.28c-0.65-0.19-1.25-0.47-1.79-0.85c-0.55-0.38-1.04-0.83-1.46-1.35 c-0.42-0.52-0.77-1.12-1.07-1.79c-0.29-0.66-0.51-1.38-0.65-2.14c-0.14-0.76-0.22-1.57-0.22-2.42c0-0.64,0.04-1.26,0.13-1.84 c0.09-0.58,0.22-1.13,0.4-1.66c0.18-0.53,0.4-1.02,0.65-1.46s0.55-0.85,0.88-1.21c0.33-0.36,0.69-0.68,1.07-0.96 c0.39-0.28,0.8-0.51,1.23-0.7l0.02-0.01c0.43-0.18,0.88-0.32,1.35-0.41c0.48-0.09,0.97-0.14,1.48-0.14c0.61,0,1.18,0.06,1.72,0.18 c0.54,0.12,1.04,0.3,1.5,0.54c0.46,0.24,0.9,0.55,1.32,0.92c0.19,0.16,0.37,0.34,0.55,0.53c0.02-0.22,0.07-0.44,0.13-0.63 c0.1-0.33,0.27-0.62,0.48-0.85c0.21-0.24,0.46-0.42,0.74-0.54l0.02-0.01c0.27-0.12,0.57-0.17,0.89-0.17c0.46,0,0.85,0.08,1.17,0.24 c0.34,0.17,0.6,0.42,0.77,0.76c0.15,0.29,0.26,0.65,0.33,1.06l0,0.01C55.75,69.92,55.78,70.37,55.78,70.88L55.78,70.88z M43.78,76.13c0,0.81,0.09,1.51,0.26,2.11l0,0.02c0.17,0.57,0.42,1.05,0.74,1.44l0.01,0.01c0.33,0.38,0.7,0.67,1.12,0.86 c0.42,0.19,0.9,0.29,1.43,0.29c0.31,0,0.61-0.04,0.9-0.12c0.29-0.08,0.58-0.21,0.86-0.38c0.27-0.17,0.52-0.37,0.74-0.62 c0.23-0.25,0.43-0.55,0.61-0.9l0.01-0.02c0.17-0.34,0.3-0.71,0.39-1.12c0.09-0.42,0.13-0.89,0.13-1.4c0-0.81-0.09-1.53-0.26-2.15 c-0.17-0.61-0.43-1.13-0.77-1.56l-0.02-0.03c-0.33-0.41-0.71-0.72-1.14-0.93c-0.44-0.21-0.93-0.31-1.48-0.31 c-1.06,0-1.91,0.4-2.55,1.21c-0.33,0.41-0.57,0.92-0.73,1.51C43.86,74.63,43.78,75.33,43.78,76.13L43.78,76.13z M69.98,82.9 c-0.4,0.29-0.79,0.56-1.18,0.79c-0.5,0.3-1,0.55-1.48,0.76l-0.02,0.01c-0.49,0.2-1,0.35-1.55,0.45c-0.55,0.1-1.13,0.15-1.73,0.15 c-0.55,0-1.08-0.06-1.58-0.17c-0.5-0.11-0.97-0.28-1.4-0.51c-0.43-0.22-0.81-0.49-1.15-0.8c-0.34-0.31-0.63-0.66-0.86-1.05 l-0.01-0.03c-0.23-0.38-0.4-0.78-0.51-1.19c-0.12-0.43-0.18-0.86-0.18-1.32c0-0.61,0.1-1.18,0.29-1.71 c0.19-0.53,0.49-1.01,0.88-1.44c0.39-0.44,0.85-0.8,1.38-1.09c0.53-0.29,1.12-0.5,1.79-0.64c1.13-0.24,2.27-0.48,3.41-0.71 c0.46-0.1,0.87-0.19,1.22-0.28c0.39-0.09,0.78-0.19,1.18-0.3l0.93-0.26c-0.03-0.39-0.09-0.74-0.17-1.04 c-0.1-0.36-0.23-0.64-0.39-0.85c-0.15-0.19-0.39-0.34-0.71-0.44c-0.37-0.12-0.84-0.17-1.41-0.17c-0.51,0-0.95,0.03-1.31,0.1 c-0.36,0.07-0.65,0.16-0.88,0.29c-0.24,0.13-0.46,0.29-0.66,0.49c-0.21,0.2-0.4,0.43-0.57,0.71c-0.18,0.27-0.34,0.51-0.48,0.71 c-0.15,0.21-0.27,0.38-0.35,0.48l-0.01,0.01c-0.13,0.15-0.32,0.26-0.56,0.33c-0.21,0.06-0.45,0.09-0.74,0.09 c-0.27,0-0.54-0.05-0.78-0.14c-0.24-0.09-0.47-0.23-0.67-0.41c-0.21-0.18-0.37-0.4-0.48-0.64c-0.11-0.24-0.16-0.5-0.16-0.79 c0-0.41,0.07-0.81,0.22-1.21c0.14-0.39,0.35-0.77,0.63-1.15l0.01-0.01c0.28-0.37,0.64-0.71,1.07-1.01c0.43-0.3,0.93-0.57,1.5-0.8 c0.57-0.23,1.21-0.41,1.92-0.52c0.71-0.12,1.48-0.17,2.31-0.17c0.93,0,1.76,0.06,2.49,0.17c0.74,0.11,1.39,0.28,1.95,0.51 c0.56,0.23,1.04,0.54,1.45,0.91c0.41,0.38,0.73,0.82,0.96,1.33c0.23,0.5,0.4,1.07,0.52,1.72c0.11,0.64,0.17,1.35,0.17,2.14 c-0.01,1.58-0.02,3.16-0.03,4.74c0,0.38,0.03,0.75,0.09,1.13c0.06,0.39,0.16,0.78,0.28,1.19c0.13,0.42,0.23,0.77,0.29,1.05 C74.96,82.62,75,82.85,75,83c0,0.27-0.06,0.54-0.19,0.78L74.8,83.8c-0.12,0.23-0.3,0.44-0.52,0.64c-0.24,0.2-0.49,0.36-0.75,0.46 l-0.02,0.01c-0.27,0.1-0.55,0.15-0.84,0.15c-0.27,0-0.53-0.06-0.8-0.19c-0.25-0.12-0.49-0.29-0.72-0.52 c-0.22-0.21-0.45-0.47-0.68-0.78C70.3,83.38,70.14,83.15,69.98,82.9L69.98,82.9z M69.43,76.88c-0.2,0.06-0.42,0.13-0.66,0.19 c-0.44,0.12-0.95,0.24-1.53,0.36l-1.39,0.31c-0.4,0.09-0.74,0.17-1,0.24c-0.2,0.05-0.39,0.13-0.57,0.23 c-0.19,0.1-0.38,0.23-0.56,0.38c-0.16,0.13-0.27,0.29-0.35,0.47c-0.08,0.19-0.12,0.41-0.12,0.67c0,0.26,0.05,0.5,0.14,0.72 c0.1,0.22,0.25,0.42,0.45,0.61c0.2,0.19,0.43,0.32,0.69,0.42c0.27,0.1,0.58,0.14,0.92,0.14c0.38,0,0.75-0.04,1.09-0.13l0.03-0.01 c0.33-0.08,0.66-0.21,0.97-0.37l0.02-0.01c0.31-0.16,0.57-0.35,0.8-0.55c0.22-0.2,0.41-0.43,0.55-0.68l0.01-0.02 c0.16-0.27,0.28-0.64,0.36-1.11c0.09-0.49,0.13-1.09,0.13-1.79V76.88L69.43,76.88z M82.96,69.62c0.18-0.19,0.36-0.37,0.55-0.54 c0.42-0.37,0.86-0.68,1.32-0.92s0.96-0.42,1.49-0.54c0.53-0.12,1.09-0.18,1.67-0.18c0.57,0,1.12,0.06,1.64,0.19 c0.52,0.13,1.02,0.32,1.47,0.57c0.46,0.25,0.87,0.56,1.22,0.93c0.35,0.37,0.64,0.79,0.87,1.25l0,0.01 c0.14,0.27,0.26,0.54,0.35,0.83c0.1,0.29,0.17,0.6,0.21,0.92l0,0.02c0.04,0.3,0.07,0.64,0.09,1.02c0.02,0.39,0.03,0.81,0.03,1.25 v7.72c0,0.45-0.05,0.85-0.16,1.2c-0.11,0.37-0.28,0.68-0.51,0.93c-0.23,0.25-0.49,0.44-0.79,0.57c-0.3,0.13-0.62,0.19-0.98,0.19 c-0.73,0-1.33-0.26-1.79-0.78c-0.23-0.26-0.4-0.57-0.51-0.93c-0.11-0.35-0.16-0.74-0.16-1.19v-6.91c0-0.66-0.05-1.24-0.14-1.74 c-0.09-0.49-0.22-0.89-0.39-1.22c-0.15-0.29-0.38-0.5-0.68-0.64c-0.33-0.16-0.75-0.23-1.26-0.23c-0.33,0-0.64,0.05-0.94,0.14 c-0.3,0.1-0.59,0.24-0.86,0.44c-0.27,0.2-0.51,0.43-0.71,0.71c-0.2,0.27-0.36,0.58-0.49,0.93c-0.09,0.28-0.16,0.7-0.21,1.25l0,0.03 c-0.05,0.55-0.07,1.24-0.07,2.07v5.19c0,0.46-0.06,0.86-0.16,1.21c-0.11,0.37-0.29,0.68-0.52,0.93c-0.23,0.25-0.5,0.44-0.8,0.57 l-0.02,0.01c-0.29,0.12-0.61,0.18-0.96,0.18c-0.71,0-1.3-0.26-1.76-0.78c-0.23-0.26-0.4-0.57-0.51-0.93 c-0.11-0.35-0.16-0.74-0.16-1.19V70.18c0-0.88,0.2-1.56,0.61-2.02l0.03-0.03c0.21-0.22,0.45-0.39,0.72-0.51 c0.28-0.12,0.6-0.18,0.94-0.18c0.21,0,0.42,0.03,0.61,0.08c0.2,0.05,0.38,0.13,0.56,0.23c0.18,0.11,0.35,0.24,0.49,0.39 c0.14,0.15,0.26,0.33,0.36,0.53c0.1,0.2,0.18,0.42,0.23,0.67L82.96,69.62L82.96,69.62z M102.94,70.18v11.98 c0,0.93-0.23,1.64-0.69,2.14c-0.23,0.25-0.5,0.44-0.8,0.57c-0.3,0.13-0.62,0.19-0.98,0.19c-0.72,0-1.31-0.26-1.76-0.79 c-0.22-0.26-0.39-0.57-0.5-0.93c-0.11-0.35-0.16-0.75-0.16-1.19V70.3c0-0.45,0.05-0.84,0.16-1.19l0.01-0.02 c0.11-0.36,0.28-0.66,0.5-0.9c0.23-0.25,0.49-0.44,0.79-0.56c0.29-0.13,0.62-0.19,0.97-0.19c0.71,0,1.3,0.25,1.77,0.74 c0.24,0.25,0.41,0.54,0.53,0.88C102.88,69.4,102.94,69.77,102.94,70.18L102.94,70.18z M100.51,66.28c-0.33,0-0.64-0.05-0.93-0.16 c-0.29-0.1-0.55-0.26-0.79-0.46l-0.01-0.01c-0.25-0.22-0.43-0.48-0.55-0.78c-0.12-0.3-0.18-0.63-0.18-1.01 c0-0.34,0.06-0.66,0.19-0.95c0.13-0.29,0.31-0.55,0.56-0.77c0.24-0.22,0.51-0.38,0.8-0.5c0.29-0.12,0.59-0.17,0.92-0.17 c0.63,0,1.18,0.2,1.67,0.6c0.26,0.21,0.45,0.47,0.58,0.78c0.12,0.3,0.19,0.63,0.19,1.01c0,0.37-0.06,0.7-0.18,0.99 c-0.12,0.3-0.31,0.57-0.56,0.78c-0.24,0.21-0.5,0.37-0.78,0.47C101.14,66.22,100.84,66.28,100.51,66.28L100.51,66.28z M122.88,79.56c0,0.57-0.17,1.19-0.51,1.83l-0.01,0.02c-0.16,0.31-0.37,0.61-0.62,0.91c-0.25,0.3-0.54,0.59-0.87,0.86 c-0.33,0.28-0.72,0.54-1.14,0.76c-0.41,0.22-0.87,0.42-1.37,0.58c-0.5,0.17-1.04,0.3-1.6,0.38c-0.56,0.08-1.15,0.13-1.77,0.13 c-2.67,0-4.76-0.79-6.27-2.36c-0.76-0.79-1.33-1.7-1.7-2.76c-0.38-1.04-0.56-2.22-0.56-3.51c0-0.88,0.09-1.7,0.26-2.48 c0.17-0.78,0.43-1.52,0.78-2.2c0.34-0.69,0.77-1.3,1.27-1.83c0.5-0.53,1.08-0.99,1.74-1.36c0.65-0.38,1.37-0.66,2.15-0.84 c0.78-0.19,1.61-0.28,2.5-0.28c0.55,0,1.08,0.04,1.6,0.13c0.52,0.08,1.01,0.21,1.48,0.37c0.46,0.16,0.9,0.35,1.3,0.57 c0.4,0.21,0.76,0.45,1.09,0.71c0.33,0.27,0.62,0.54,0.87,0.81c0.25,0.28,0.47,0.58,0.65,0.88l0.01,0.02c0.18,0.3,0.31,0.6,0.4,0.88 c0.09,0.3,0.14,0.59,0.14,0.87c0,0.3-0.06,0.58-0.17,0.84c-0.11,0.26-0.28,0.49-0.5,0.7c-0.23,0.21-0.47,0.36-0.74,0.46 c-0.27,0.1-0.56,0.15-0.87,0.15c-0.43,0-0.79-0.12-1.09-0.34c-0.13-0.1-0.27-0.23-0.41-0.39c-0.14-0.16-0.28-0.34-0.43-0.54 l-0.02-0.03c-0.24-0.37-0.49-0.69-0.74-0.96c-0.24-0.27-0.49-0.49-0.74-0.66c-0.24-0.17-0.52-0.29-0.83-0.38 c-0.31-0.09-0.67-0.13-1.06-0.13c-0.56,0-1.06,0.11-1.5,0.32c-0.44,0.21-0.83,0.54-1.16,0.97l-0.01,0.01 c-0.34,0.44-0.6,0.96-0.77,1.55c-0.18,0.62-0.26,1.32-0.26,2.12c0,0.38,0.02,0.73,0.07,1.06c0.05,0.34,0.12,0.67,0.21,0.98 c0.09,0.3,0.2,0.58,0.33,0.85l0.01,0.02c0.12,0.25,0.27,0.47,0.43,0.67c0.17,0.21,0.35,0.4,0.54,0.55c0.2,0.15,0.41,0.29,0.64,0.39 c0.23,0.11,0.48,0.19,0.73,0.24c0.26,0.05,0.53,0.08,0.81,0.08c0.38,0,0.74-0.04,1.06-0.13c0.32-0.09,0.61-0.21,0.87-0.38 c0.27-0.17,0.52-0.4,0.76-0.66c0.25-0.28,0.48-0.6,0.69-0.97l0-0.01c0.13-0.24,0.27-0.46,0.41-0.65c0.15-0.21,0.32-0.38,0.48-0.53 l0.01-0.01c0.18-0.16,0.38-0.28,0.6-0.36s0.46-0.12,0.72-0.12c0.31,0,0.59,0.06,0.85,0.18c0.26,0.12,0.49,0.3,0.69,0.53 c0.19,0.22,0.34,0.46,0.44,0.7C122.83,79.04,122.88,79.29,122.88,79.56L122.88,79.56z M54.27,44.59 C46.16,27.14,25.34,21.15,15.01,9.22C26.2,31.04,35.36,32.11,54.27,44.59L54.27,44.59L54.27,44.59z M68.61,44.59 c8.11-17.46,28.93-23.44,39.25-35.38C96.68,31.04,87.52,32.11,68.61,44.59L68.61,44.59L68.61,44.59z"/></g></svg>